<svg xmlns="http://www.w3.org/2000/svg" viewBox="0 0 1200 650"><defs><linearGradient id="sky" x1="0" y1="0" x2="1" y2="1"><stop stop-color="#dbeeed"/><stop offset=".55" stop-color="#a8cbd0"/><stop offset="1" stop-color="#7899a1"/></linearGradient><linearGradient id="land" x1="0" y1="0" x2="1" y2="1"><stop stop-color="#6f897d"/><stop offset="1" stop-color="#405f55"/></linearGradient></defs><rect width="1200" height="650" fill="url(#sky)"/><path d="M0 410c160-110 290-135 420-70 160 80 260 22 370-36 130-69 278-35 410 62v284H0Z" fill="url(#land)"/><path d="M0 470c250-45 390 50 620 15 220-34 370-75 580-18v183H0Z" fill="#d8c6aa" opacity=".7"/><path d="M0 510c255 12 440 80 670 36 195-37 350-49 530-11v115H0Z" fill="#6da4b1" opacity=".82"/><circle cx="1030" cy="120" r="58" fill="#fff6dd" opacity=".88"/></svg>
